<?xml version="1.0" encoding="utf-8"?>
<!-- Generator: Adobe Illustrator 25.3.1, SVG Export Plug-In . SVG Version: 6.00 Build 0)  -->
<svg version="1.1" id="Capa_1" xmlns="http://www.w3.org/2000/svg" xmlns:xlink="http://www.w3.org/1999/xlink" x="0px" y="0px"
	 viewBox="0 0 150 65.1" style="enable-background:new 0 0 150 65.1;" xml:space="preserve">
<style type="text/css">
	.st0{fill:#2E2A25;}
	.st1{fill:#009A85;}
</style>
<g>
	<circle class="st0" cx="5.3" cy="5.3" r="5.3"/>
	<rect x="0.9" y="14.9" class="st0" width="8.7" height="50.2"/>
	<path class="st0" d="M14.1,16v49.1h9.3v-32c0,0,2.2-10.7,11.7-10.7c9.5,0,11,6.6,11.5,10.7c0.2,2.1,0,32,0,32h8.8V33
		c0,0-0.5-6.8-2.8-10.2c-2.6-5.4-10.2-8.4-15.8-7.9c-3.5,0.4-6.9,1.9-7.9,2.5c-1,0.6-3.9,2.5-5.2,4.7c-1.1,1.6-1,2.2-1,2.2l-0.5,0
		V16H14.1z"/>
	<polygon class="st1" points="59.8,14.9 59.8,65.1 67.7,65.1 67.7,40 84.7,65.1 95.9,65.1 95.9,58.5 88.4,58.5 76.2,40 88.2,21.7 
		95.9,21.7 95.9,14.9 84.7,14.9 67.8,39.2 67.8,14.9 	"/>
	<path class="st0" d="M100.4,14.9v6.7c0,0,14.3,1.5,14.2,18.3c0,13.3-14.2,18.6-14.2,18.6v6.7c0,0,20.8-2.9,20.9-25.3
		C121.3,15.5,100.4,14.9,100.4,14.9z"/>
	<path class="st0" d="M125.9,16.1l0.5,49.1h8.6V36.5c0,0,0.4-6.5,4.5-10.1c2.5-2.4,5.1-3.2,7.8-3.2c2.8,0,2.8,0.4,2.8,0.4v-8.3
		c0,0-6.2-1-9.8,1.9c-3.6,2.9-3.8,3.7-5,6c-0.3,0.6-0.9,2.5-0.9,2.5l-0.6-0.1v-9.6L125.9,16.1z"/>
</g>
</svg>
